<svg width="18" height="17" viewBox="0 0 18 17" fill="none" xmlns="http://www.w3.org/2000/svg">
<path d="M14.6257 6.90524C14.6257 8.42904 14.1019 9.83665 13.2194 10.9787L17.6704 15.1849C18.1099 15.5999 18.1099 16.2738 17.6704 16.6888C17.2309 17.1037 16.5172 17.1037 16.0777 16.6888L11.6267 12.4825C10.4173 13.3191 8.92661 13.8105 7.31286 13.8105C3.27321 13.8105 0 10.7197 0 6.90524C0 3.09076 3.27321 0 7.31286 0C11.3525 0 14.6257 3.09076 14.6257 6.90524ZM7.31286 11.6858C10.1079 11.6858 12.3756 9.5445 12.3756 6.90524C12.3756 4.26598 10.1079 2.12469 7.31286 2.12469C4.5178 2.12469 2.25011 4.26598 2.25011 6.90524C2.25011 9.5445 4.5178 11.6858 7.31286 11.6858Z" fill="#ABABAB"/>
</svg>
